<svg width="32" height="22" viewBox="0 0 32 22" fill="none" xmlns="http://www.w3.org/2000/svg">
<g filter="url(#filter0_f_42_52)">
<path d="M6.384 6.128C6.94933 6.11733 7.472 6.08 7.952 6.016C8.432 5.94133 8.81067 5.86133 9.088 5.776C9.20533 5.76533 9.328 5.79733 9.456 5.872C9.59467 5.936 9.71733 6.02667 9.824 6.144C9.94133 6.25067 10.0373 6.368 10.112 6.496C10.1867 6.61333 10.224 6.72 10.224 6.816C10.224 6.90133 10.192 7.008 10.128 7.136C10.0747 7.25333 10.0053 7.38133 9.92 7.52C9.83467 7.648 9.73867 7.77067 9.632 7.888C9.536 8.00533 9.44533 8.10133 9.36 8.176C9.392 8.176 9.42933 8.18667 9.472 8.208C9.51467 8.25067 9.56267 8.30933 9.616 8.384C9.66933 8.448 9.71733 8.51733 9.76 8.592C9.80267 8.66667 9.82933 8.74667 9.84 8.832C9.86133 8.90667 9.856 8.97067 9.824 9.024C9.77067 9.10933 9.62133 9.16267 9.376 9.184C8.93867 9.20533 8.49067 9.22667 8.032 9.248C7.584 9.25867 7.12533 9.27467 6.656 9.296C6.784 9.43467 6.864 9.60533 6.896 9.808C6.93867 10 6.93867 10.1973 6.896 10.4C7.216 10.3893 7.49333 10.384 7.728 10.384C7.96267 10.3733 8.192 10.368 8.416 10.368C8.65067 10.3573 8.896 10.3467 9.152 10.336C9.41867 10.3147 9.73867 10.288 10.112 10.256C10.176 10.256 10.2613 10.256 10.368 10.256C10.4853 10.256 10.592 10.2613 10.688 10.272C10.7947 10.272 10.8853 10.288 10.96 10.32C11.0453 10.3413 11.088 10.3733 11.088 10.416C11.0987 10.5013 11.072 10.5973 11.008 10.704C10.9547 10.8 10.8747 10.8907 10.768 10.976C10.672 11.0613 10.5653 11.136 10.448 11.2C10.3413 11.264 10.24 11.3067 10.144 11.328C9.90933 11.3813 9.62133 11.4293 9.28 11.472C8.93867 11.5147 8.59733 11.5467 8.256 11.568C8.384 11.6107 8.50133 11.6587 8.608 11.712C8.72533 11.7547 8.81067 11.8027 8.864 11.856C8.93867 11.9307 8.98667 12 9.008 12.064C9.04 12.128 9.05067 12.224 9.04 12.352C9.02933 12.512 9.01333 12.6933 8.992 12.896C8.98133 13.088 8.96 13.28 8.928 13.472C9.312 13.4613 9.66933 13.4667 10 13.488C10.3413 13.5093 10.64 13.5467 10.896 13.6C10.928 13.6107 10.976 13.6427 11.04 13.696C11.1147 13.7493 11.1893 13.8187 11.264 13.904C11.3387 13.9787 11.4027 14.0587 11.456 14.144C11.52 14.2293 11.5627 14.304 11.584 14.368C11.5947 14.4107 11.5733 14.4747 11.52 14.56C11.4773 14.6347 11.4293 14.6933 11.376 14.736C11.3333 14.768 11.2427 14.816 11.104 14.88C10.9653 14.944 10.848 14.9547 10.752 14.912C10.4427 14.7947 10.0533 14.7093 9.584 14.656C9.12533 14.592 8.62933 14.5547 8.096 14.544C7.552 14.5333 6.98667 14.56 6.4 14.624C5.81333 14.6773 5.27467 14.752 4.784 14.848C4.69867 14.8693 4.61333 14.8587 4.528 14.816C4.44267 14.7733 4.39467 14.7413 4.384 14.72C4.36267 14.688 4.36267 14.608 4.384 14.48C4.416 14.352 4.448 14.2667 4.48 14.224C4.58667 14.1387 4.736 14.0587 4.928 13.984C5.12 13.8987 5.29067 13.84 5.44 13.808C5.792 13.7333 6.17067 13.6693 6.576 13.616C6.98133 13.5627 7.39733 13.5253 7.824 13.504C7.80267 13.3653 7.78667 13.216 7.776 13.056C7.76533 12.8853 7.75467 12.7147 7.744 12.544C7.60533 12.4267 7.46133 12.2933 7.312 12.144C7.17333 11.9947 7.05067 11.8293 6.944 11.648H6.656C6.53867 11.648 6.4 11.648 6.24 11.648C6.09067 11.648 5.904 11.6373 5.68 11.616C5.54133 11.5947 5.424 11.5627 5.328 11.52C5.232 11.4773 5.17867 11.3707 5.168 11.2C5.15733 11.0613 5.152 10.928 5.152 10.8C5.16267 10.672 5.21067 10.5493 5.296 10.432C5.50933 10.1547 5.6 9.90933 5.568 9.696C5.54667 9.472 5.424 9.22133 5.2 8.944C5.11467 8.848 5.06667 8.74667 5.056 8.64C5.04533 8.53333 5.05067 8.45867 5.072 8.416C5.09333 8.384 5.13067 8.35733 5.184 8.336C5.248 8.31467 5.36533 8.29333 5.536 8.272C6.05867 8.24 6.56 8.21867 7.04 8.208C7.53067 8.18667 8.05333 8.16533 8.608 8.144C8.66133 7.99467 8.69333 7.82933 8.704 7.648C8.72533 7.456 8.73067 7.29067 8.72 7.152C8.60267 7.152 8.45867 7.15733 8.288 7.168C8.128 7.17867 7.952 7.19467 7.76 7.216C7.57867 7.22667 7.392 7.248 7.2 7.28C7.008 7.30133 6.82667 7.33867 6.656 7.392C6.54933 7.424 6.464 7.44 6.4 7.44C6.336 7.44 6.24 7.40267 6.112 7.328C6.00533 7.27467 5.88267 7.184 5.744 7.056C5.616 6.91733 5.51467 6.79467 5.44 6.688C5.38667 6.60267 5.33333 6.51733 5.28 6.432C5.22667 6.336 5.22667 6.26133 5.28 6.208C5.312 6.176 5.36533 6.15467 5.44 6.144C5.52533 6.13333 5.6 6.128 5.664 6.128H6.384ZM13.488 11.072C13.5947 11.0613 13.7653 11.0453 14 11.024C14.2453 10.992 14.4747 10.9813 14.688 10.992C14.7627 11.0027 14.8587 11.0347 14.976 11.088C15.0933 11.1413 15.2 11.2053 15.296 11.28C15.4027 11.3547 15.4933 11.4347 15.568 11.52C15.6533 11.6053 15.7013 11.6853 15.712 11.76C15.7227 11.856 15.68 11.9893 15.584 12.16C15.488 12.32 15.4133 12.432 15.36 12.496C15.328 12.5387 15.2907 12.576 15.248 12.608C15.2053 12.64 15.12 12.6613 14.992 12.672C14.9173 12.672 14.8053 12.672 14.656 12.672C14.5067 12.672 14.352 12.6613 14.192 12.64C14.032 12.6187 13.8827 12.5867 13.744 12.544C13.6053 12.5013 13.5093 12.448 13.456 12.384V12.752C13.456 13.1253 13.4347 13.5253 13.392 13.952C13.36 14.368 13.296 14.7787 13.2 15.184C13.1147 15.5893 13.0027 15.9733 12.864 16.336C12.736 16.6987 12.576 17.0027 12.384 17.248C12.2987 17.3653 12.224 17.4293 12.16 17.44C12.1067 17.4613 12.0533 17.456 12 17.424C11.968 17.4027 11.9147 17.344 11.84 17.248C11.7653 17.1627 11.712 17.0613 11.68 16.944C11.6693 16.8907 11.6747 16.8107 11.696 16.704C11.7173 16.5973 11.744 16.5067 11.776 16.432C11.808 16.1973 11.8347 15.8987 11.856 15.536C11.8773 15.1627 11.8933 14.7787 11.904 14.384C11.9253 13.9787 11.936 13.584 11.936 13.2C11.9467 12.816 11.952 12.48 11.952 12.192V6.256C11.952 6.11733 11.9093 6.02133 11.824 5.968C11.6107 5.84 11.4133 5.70133 11.232 5.552C11.0507 5.40267 10.8907 5.22133 10.752 5.008C10.7307 4.976 10.6987 4.88 10.656 4.72C10.6133 4.54933 10.6027 4.41067 10.624 4.304C10.6347 4.22933 10.6613 4.18133 10.704 4.16C10.7573 4.13867 10.8053 4.13333 10.848 4.144C11.2427 4.22933 11.6533 4.37333 12.08 4.576C12.5173 4.768 12.8747 4.976 13.152 5.2C13.312 5.328 13.408 5.456 13.44 5.584C13.472 5.712 13.488 5.86667 13.488 6.048V11.072ZM26.3509 16C25.5402 15.776 24.7509 15.6213 23.9829 15.536C23.2255 15.44 22.3989 15.3813 21.5029 15.36C21.2469 15.3493 20.9429 15.3493 20.5909 15.36C20.2389 15.36 19.8602 15.376 19.4549 15.408C19.0495 15.4293 18.6282 15.4667 18.1909 15.52C17.7642 15.5627 17.3429 15.6267 16.9269 15.712C16.8309 15.7333 16.7295 15.7173 16.6229 15.664C16.5162 15.6 16.4522 15.552 16.4309 15.52C16.4095 15.4667 16.4202 15.3707 16.4629 15.232C16.5055 15.0933 16.5535 15.0027 16.6069 14.96C16.6709 14.9067 16.7775 14.848 16.9269 14.784C17.0762 14.7093 17.2362 14.6453 17.4069 14.592C17.5775 14.528 17.7429 14.4747 17.9029 14.432C18.0735 14.3893 18.2069 14.3627 18.3029 14.352C18.9322 14.2773 19.6255 14.2187 20.3829 14.176C21.1402 14.1227 21.8975 14.1013 22.6549 14.112C23.4122 14.112 24.1322 14.144 24.8149 14.208C25.5082 14.272 26.1055 14.3787 26.6069 14.528C26.6602 14.5493 26.7295 14.592 26.8149 14.656C26.9002 14.7093 26.9802 14.7787 27.0549 14.864C27.1402 14.9493 27.2149 15.04 27.2789 15.136C27.3535 15.232 27.4015 15.3227 27.4229 15.408C27.4335 15.4613 27.4069 15.536 27.3429 15.632C27.2895 15.7173 27.2202 15.7867 27.1349 15.84C27.0815 15.872 26.9695 15.9093 26.7989 15.952C26.6389 15.984 26.4895 16 26.3509 16ZM24.4149 6.8C24.4789 6.832 24.5535 6.88533 24.6389 6.96C24.7242 7.024 24.8042 7.09867 24.8789 7.184C24.9642 7.26933 25.0335 7.35467 25.0869 7.44C25.1402 7.51467 25.1722 7.57867 25.1829 7.632C25.2255 7.81333 25.2415 7.98933 25.2309 8.16C25.2202 8.32 25.2095 8.48533 25.1989 8.656C25.1882 8.86933 25.1722 9.13067 25.1509 9.44C25.1295 9.74933 25.1029 10.064 25.0709 10.384C25.0389 10.704 25.0015 11.0133 24.9589 11.312C24.9162 11.6 24.8735 11.8347 24.8309 12.016C24.7989 12.1653 24.7455 12.336 24.6709 12.528C24.6069 12.7093 24.5322 12.88 24.4469 13.04C24.3615 13.1893 24.2709 13.3067 24.1749 13.392C24.0789 13.4773 23.9829 13.488 23.8869 13.424C23.8229 13.3707 23.7802 13.2747 23.7589 13.136C23.7375 12.9973 23.7269 12.8373 23.7269 12.656C23.7269 12.4213 23.7215 12.0907 23.7109 11.664C23.7109 11.2373 23.7055 10.7947 23.6949 10.336C23.6842 9.87733 23.6682 9.44 23.6469 9.024C23.6255 8.59733 23.5935 8.26133 23.5509 8.016C23.2949 8.08 22.9855 8.144 22.6229 8.208C22.2602 8.26133 21.8869 8.30933 21.5029 8.352C21.1295 8.384 20.7669 8.416 20.4149 8.448C20.0735 8.48 19.7962 8.50133 19.5829 8.512C19.5402 8.512 19.4655 8.496 19.3589 8.464C19.2522 8.42133 19.1402 8.37333 19.0229 8.32C18.9162 8.256 18.8149 8.192 18.7189 8.128C18.6229 8.05333 18.5589 7.984 18.5269 7.92C18.4842 7.84533 18.4842 7.776 18.5269 7.712C18.5695 7.63733 18.7135 7.56267 18.9589 7.488C19.2042 7.41333 19.5029 7.344 19.8549 7.28C20.2175 7.20533 20.6069 7.14133 21.0229 7.088C21.4389 7.024 21.8335 6.97067 22.2069 6.928C22.5802 6.87467 22.9109 6.832 23.1989 6.8C23.4869 6.768 23.6789 6.74667 23.7749 6.736C23.9135 6.72533 24.0202 6.72 24.0949 6.72C24.1802 6.72 24.2869 6.74667 24.4149 6.8Z" fill="#FF99AC"/>
</g>
<path d="M6.384 6.128C6.94933 6.11733 7.472 6.08 7.952 6.016C8.432 5.94133 8.81067 5.86133 9.088 5.776C9.20533 5.76533 9.328 5.79733 9.456 5.872C9.59467 5.936 9.71733 6.02667 9.824 6.144C9.94133 6.25067 10.0373 6.368 10.112 6.496C10.1867 6.61333 10.224 6.72 10.224 6.816C10.224 6.90133 10.192 7.008 10.128 7.136C10.0747 7.25333 10.0053 7.38133 9.92 7.52C9.83467 7.648 9.73867 7.77067 9.632 7.888C9.536 8.00533 9.44533 8.10133 9.36 8.176C9.392 8.176 9.42933 8.18667 9.472 8.208C9.51467 8.25067 9.56267 8.30933 9.616 8.384C9.66933 8.448 9.71733 8.51733 9.76 8.592C9.80267 8.66667 9.82933 8.74667 9.84 8.832C9.86133 8.90667 9.856 8.97067 9.824 9.024C9.77067 9.10933 9.62133 9.16267 9.376 9.184C8.93867 9.20533 8.49067 9.22667 8.032 9.248C7.584 9.25867 7.12533 9.27467 6.656 9.296C6.784 9.43467 6.864 9.60533 6.896 9.808C6.93867 10 6.93867 10.1973 6.896 10.4C7.216 10.3893 7.49333 10.384 7.728 10.384C7.96267 10.3733 8.192 10.368 8.416 10.368C8.65067 10.3573 8.896 10.3467 9.152 10.336C9.41867 10.3147 9.73867 10.288 10.112 10.256C10.176 10.256 10.2613 10.256 10.368 10.256C10.4853 10.256 10.592 10.2613 10.688 10.272C10.7947 10.272 10.8853 10.288 10.96 10.32C11.0453 10.3413 11.088 10.3733 11.088 10.416C11.0987 10.5013 11.072 10.5973 11.008 10.704C10.9547 10.8 10.8747 10.8907 10.768 10.976C10.672 11.0613 10.5653 11.136 10.448 11.2C10.3413 11.264 10.24 11.3067 10.144 11.328C9.90933 11.3813 9.62133 11.4293 9.28 11.472C8.93867 11.5147 8.59733 11.5467 8.256 11.568C8.384 11.6107 8.50133 11.6587 8.608 11.712C8.72533 11.7547 8.81067 11.8027 8.864 11.856C8.93867 11.9307 8.98667 12 9.008 12.064C9.04 12.128 9.05067 12.224 9.04 12.352C9.02933 12.512 9.01333 12.6933 8.992 12.896C8.98133 13.088 8.96 13.28 8.928 13.472C9.312 13.4613 9.66933 13.4667 10 13.488C10.3413 13.5093 10.64 13.5467 10.896 13.6C10.928 13.6107 10.976 13.6427 11.04 13.696C11.1147 13.7493 11.1893 13.8187 11.264 13.904C11.3387 13.9787 11.4027 14.0587 11.456 14.144C11.52 14.2293 11.5627 14.304 11.584 14.368C11.5947 14.4107 11.5733 14.4747 11.52 14.56C11.4773 14.6347 11.4293 14.6933 11.376 14.736C11.3333 14.768 11.2427 14.816 11.104 14.88C10.9653 14.944 10.848 14.9547 10.752 14.912C10.4427 14.7947 10.0533 14.7093 9.584 14.656C9.12533 14.592 8.62933 14.5547 8.096 14.544C7.552 14.5333 6.98667 14.56 6.4 14.624C5.81333 14.6773 5.27467 14.752 4.784 14.848C4.69867 14.8693 4.61333 14.8587 4.528 14.816C4.44267 14.7733 4.39467 14.7413 4.384 14.72C4.36267 14.688 4.36267 14.608 4.384 14.48C4.416 14.352 4.448 14.2667 4.48 14.224C4.58667 14.1387 4.736 14.0587 4.928 13.984C5.12 13.8987 5.29067 13.84 5.44 13.808C5.792 13.7333 6.17067 13.6693 6.576 13.616C6.98133 13.5627 7.39733 13.5253 7.824 13.504C7.80267 13.3653 7.78667 13.216 7.776 13.056C7.76533 12.8853 7.75467 12.7147 7.744 12.544C7.60533 12.4267 7.46133 12.2933 7.312 12.144C7.17333 11.9947 7.05067 11.8293 6.944 11.648H6.656C6.53867 11.648 6.4 11.648 6.24 11.648C6.09067 11.648 5.904 11.6373 5.68 11.616C5.54133 11.5947 5.424 11.5627 5.328 11.52C5.232 11.4773 5.17867 11.3707 5.168 11.2C5.15733 11.0613 5.152 10.928 5.152 10.8C5.16267 10.672 5.21067 10.5493 5.296 10.432C5.50933 10.1547 5.6 9.90933 5.568 9.696C5.54667 9.472 5.424 9.22133 5.2 8.944C5.11467 8.848 5.06667 8.74667 5.056 8.64C5.04533 8.53333 5.05067 8.45867 5.072 8.416C5.09333 8.384 5.13067 8.35733 5.184 8.336C5.248 8.31467 5.36533 8.29333 5.536 8.272C6.05867 8.24 6.56 8.21867 7.04 8.208C7.53067 8.18667 8.05333 8.16533 8.608 8.144C8.66133 7.99467 8.69333 7.82933 8.704 7.648C8.72533 7.456 8.73067 7.29067 8.72 7.152C8.60267 7.152 8.45867 7.15733 8.288 7.168C8.128 7.17867 7.952 7.19467 7.76 7.216C7.57867 7.22667 7.392 7.248 7.2 7.28C7.008 7.30133 6.82667 7.33867 6.656 7.392C6.54933 7.424 6.464 7.44 6.4 7.44C6.336 7.44 6.24 7.40267 6.112 7.328C6.00533 7.27467 5.88267 7.184 5.744 7.056C5.616 6.91733 5.51467 6.79467 5.44 6.688C5.38667 6.60267 5.33333 6.51733 5.28 6.432C5.22667 6.336 5.22667 6.26133 5.28 6.208C5.312 6.176 5.36533 6.15467 5.44 6.144C5.52533 6.13333 5.6 6.128 5.664 6.128H6.384ZM13.488 11.072C13.5947 11.0613 13.7653 11.0453 14 11.024C14.2453 10.992 14.4747 10.9813 14.688 10.992C14.7627 11.0027 14.8587 11.0347 14.976 11.088C15.0933 11.1413 15.2 11.2053 15.296 11.28C15.4027 11.3547 15.4933 11.4347 15.568 11.52C15.6533 11.6053 15.7013 11.6853 15.712 11.76C15.7227 11.856 15.68 11.9893 15.584 12.16C15.488 12.32 15.4133 12.432 15.36 12.496C15.328 12.5387 15.2907 12.576 15.248 12.608C15.2053 12.64 15.12 12.6613 14.992 12.672C14.9173 12.672 14.8053 12.672 14.656 12.672C14.5067 12.672 14.352 12.6613 14.192 12.64C14.032 12.6187 13.8827 12.5867 13.744 12.544C13.6053 12.5013 13.5093 12.448 13.456 12.384V12.752C13.456 13.1253 13.4347 13.5253 13.392 13.952C13.36 14.368 13.296 14.7787 13.2 15.184C13.1147 15.5893 13.0027 15.9733 12.864 16.336C12.736 16.6987 12.576 17.0027 12.384 17.248C12.2987 17.3653 12.224 17.4293 12.16 17.44C12.1067 17.4613 12.0533 17.456 12 17.424C11.968 17.4027 11.9147 17.344 11.84 17.248C11.7653 17.1627 11.712 17.0613 11.68 16.944C11.6693 16.8907 11.6747 16.8107 11.696 16.704C11.7173 16.5973 11.744 16.5067 11.776 16.432C11.808 16.1973 11.8347 15.8987 11.856 15.536C11.8773 15.1627 11.8933 14.7787 11.904 14.384C11.9253 13.9787 11.936 13.584 11.936 13.2C11.9467 12.816 11.952 12.48 11.952 12.192V6.256C11.952 6.11733 11.9093 6.02133 11.824 5.968C11.6107 5.84 11.4133 5.70133 11.232 5.552C11.0507 5.40267 10.8907 5.22133 10.752 5.008C10.7307 4.976 10.6987 4.88 10.656 4.72C10.6133 4.54933 10.6027 4.41067 10.624 4.304C10.6347 4.22933 10.6613 4.18133 10.704 4.16C10.7573 4.13867 10.8053 4.13333 10.848 4.144C11.2427 4.22933 11.6533 4.37333 12.08 4.576C12.5173 4.768 12.8747 4.976 13.152 5.2C13.312 5.328 13.408 5.456 13.44 5.584C13.472 5.712 13.488 5.86667 13.488 6.048V11.072ZM26.3509 16C25.5402 15.776 24.7509 15.6213 23.9829 15.536C23.2255 15.44 22.3989 15.3813 21.5029 15.36C21.2469 15.3493 20.9429 15.3493 20.5909 15.36C20.2389 15.36 19.8602 15.376 19.4549 15.408C19.0495 15.4293 18.6282 15.4667 18.1909 15.52C17.7642 15.5627 17.3429 15.6267 16.9269 15.712C16.8309 15.7333 16.7295 15.7173 16.6229 15.664C16.5162 15.6 16.4522 15.552 16.4309 15.52C16.4095 15.4667 16.4202 15.3707 16.4629 15.232C16.5055 15.0933 16.5535 15.0027 16.6069 14.96C16.6709 14.9067 16.7775 14.848 16.9269 14.784C17.0762 14.7093 17.2362 14.6453 17.4069 14.592C17.5775 14.528 17.7429 14.4747 17.9029 14.432C18.0735 14.3893 18.2069 14.3627 18.3029 14.352C18.9322 14.2773 19.6255 14.2187 20.3829 14.176C21.1402 14.1227 21.8975 14.1013 22.6549 14.112C23.4122 14.112 24.1322 14.144 24.8149 14.208C25.5082 14.272 26.1055 14.3787 26.6069 14.528C26.6602 14.5493 26.7295 14.592 26.8149 14.656C26.9002 14.7093 26.9802 14.7787 27.0549 14.864C27.1402 14.9493 27.2149 15.04 27.2789 15.136C27.3535 15.232 27.4015 15.3227 27.4229 15.408C27.4335 15.4613 27.4069 15.536 27.3429 15.632C27.2895 15.7173 27.2202 15.7867 27.1349 15.84C27.0815 15.872 26.9695 15.9093 26.7989 15.952C26.6389 15.984 26.4895 16 26.3509 16ZM24.4149 6.8C24.4789 6.832 24.5535 6.88533 24.6389 6.96C24.7242 7.024 24.8042 7.09867 24.8789 7.184C24.9642 7.26933 25.0335 7.35467 25.0869 7.44C25.1402 7.51467 25.1722 7.57867 25.1829 7.632C25.2255 7.81333 25.2415 7.98933 25.2309 8.16C25.2202 8.32 25.2095 8.48533 25.1989 8.656C25.1882 8.86933 25.1722 9.13067 25.1509 9.44C25.1295 9.74933 25.1029 10.064 25.0709 10.384C25.0389 10.704 25.0015 11.0133 24.9589 11.312C24.9162 11.6 24.8735 11.8347 24.8309 12.016C24.7989 12.1653 24.7455 12.336 24.6709 12.528C24.6069 12.7093 24.5322 12.88 24.4469 13.04C24.3615 13.1893 24.2709 13.3067 24.1749 13.392C24.0789 13.4773 23.9829 13.488 23.8869 13.424C23.8229 13.3707 23.7802 13.2747 23.7589 13.136C23.7375 12.9973 23.7269 12.8373 23.7269 12.656C23.7269 12.4213 23.7215 12.0907 23.7109 11.664C23.7109 11.2373 23.7055 10.7947 23.6949 10.336C23.6842 9.87733 23.6682 9.44 23.6469 9.024C23.6255 8.59733 23.5935 8.26133 23.5509 8.016C23.2949 8.08 22.9855 8.144 22.6229 8.208C22.2602 8.26133 21.8869 8.30933 21.5029 8.352C21.1295 8.384 20.7669 8.416 20.4149 8.448C20.0735 8.48 19.7962 8.50133 19.5829 8.512C19.5402 8.512 19.4655 8.496 19.3589 8.464C19.2522 8.42133 19.1402 8.37333 19.0229 8.32C18.9162 8.256 18.8149 8.192 18.7189 8.128C18.6229 8.05333 18.5589 7.984 18.5269 7.92C18.4842 7.84533 18.4842 7.776 18.5269 7.712C18.5695 7.63733 18.7135 7.56267 18.9589 7.488C19.2042 7.41333 19.5029 7.344 19.8549 7.28C20.2175 7.20533 20.6069 7.14133 21.0229 7.088C21.4389 7.024 21.8335 6.97067 22.2069 6.928C22.5802 6.87467 22.9109 6.832 23.1989 6.8C23.4869 6.768 23.6789 6.74667 23.7749 6.736C23.9135 6.72533 24.0202 6.72 24.0949 6.72C24.1802 6.72 24.2869 6.74667 24.4149 6.8Z" fill="#FC4D71"/>
<defs>
<filter id="filter0_f_42_52" x="0.352051" y="0.128052" width="31.0869" height="21.344" filterUnits="userSpaceOnUse" color-interpolation-filters="sRGB">
<feFlood flood-opacity="0" result="BackgroundImageFix"/>
<feBlend mode="normal" in="SourceGraphic" in2="BackgroundImageFix" result="shape"/>
<feGaussianBlur stdDeviation="2" result="effect1_foregroundBlur_42_52"/>
</filter>
</defs>
</svg>
