<svg width="36" height="44" viewBox="0 0 36 44" fill="none" xmlns="http://www.w3.org/2000/svg">
<g filter="url(#filter0_f_46_71)">
<path d="M9.662 12.6683C11.0047 12.6429 12.246 12.5543 13.386 12.4023C14.526 12.2249 15.4253 12.0349 16.084 11.8323C16.3627 11.8069 16.654 11.8829 16.958 12.0603C17.2873 12.2123 17.5787 12.4276 17.832 12.7063C18.1107 12.9596 18.3387 13.2383 18.516 13.5423C18.6933 13.8209 18.782 14.0743 18.782 14.3023C18.782 14.5049 18.706 14.7583 18.554 15.0623C18.4273 15.3409 18.2627 15.6449 18.06 15.9743C17.8573 16.2783 17.6293 16.5696 17.376 16.8483C17.148 17.1269 16.9327 17.3549 16.73 17.5323C16.806 17.5323 16.8947 17.5576 16.996 17.6083C17.0973 17.7096 17.2113 17.8489 17.338 18.0263C17.4647 18.1783 17.5787 18.3429 17.68 18.5203C17.7813 18.6976 17.8447 18.8876 17.87 19.0903C17.9207 19.2676 17.908 19.4196 17.832 19.5463C17.7053 19.7489 17.3507 19.8756 16.768 19.9263C15.7293 19.9769 14.6653 20.0276 13.576 20.0783C12.512 20.1036 11.4227 20.1416 10.308 20.1923C10.612 20.5216 10.802 20.9269 10.878 21.4083C10.9793 21.8643 10.9793 22.3329 10.878 22.8143C11.638 22.7889 12.2967 22.7763 12.854 22.7763C13.4113 22.7509 13.956 22.7383 14.488 22.7383C15.0453 22.7129 15.628 22.6876 16.236 22.6623C16.8693 22.6116 17.6293 22.5483 18.516 22.4723C18.668 22.4723 18.8707 22.4723 19.124 22.4723C19.4027 22.4723 19.656 22.4849 19.884 22.5103C20.1373 22.5103 20.3527 22.5483 20.53 22.6243C20.7327 22.6749 20.834 22.7509 20.834 22.8523C20.8593 23.0549 20.796 23.2829 20.644 23.5363C20.5173 23.7643 20.3273 23.9796 20.074 24.1823C19.846 24.3849 19.5927 24.5623 19.314 24.7143C19.0607 24.8663 18.82 24.9676 18.592 25.0183C18.0347 25.1449 17.3507 25.2589 16.54 25.3603C15.7293 25.4616 14.9187 25.5376 14.108 25.5883C14.412 25.6896 14.6907 25.8036 14.944 25.9303C15.2227 26.0316 15.4253 26.1456 15.552 26.2723C15.7293 26.4496 15.8433 26.6143 15.894 26.7663C15.97 26.9183 15.9953 27.1463 15.97 27.4503C15.9447 27.8303 15.9067 28.2609 15.856 28.7423C15.8307 29.1983 15.78 29.6543 15.704 30.1103C16.616 30.0849 17.4647 30.0976 18.25 30.1483C19.0607 30.1989 19.77 30.2876 20.378 30.4143C20.454 30.4396 20.568 30.5156 20.72 30.6423C20.8973 30.7689 21.0747 30.9336 21.252 31.1363C21.4293 31.3136 21.5813 31.5036 21.708 31.7063C21.86 31.9089 21.9613 32.0863 22.012 32.2383C22.0373 32.3396 21.9867 32.4916 21.86 32.6943C21.7587 32.8716 21.6447 33.0109 21.518 33.1123C21.4167 33.1883 21.2013 33.3023 20.872 33.4543C20.5427 33.6063 20.264 33.6316 20.036 33.5303C19.3013 33.2516 18.3767 33.0489 17.262 32.9223C16.1727 32.7703 14.9947 32.6816 13.728 32.6563C12.436 32.6309 11.0933 32.6943 9.7 32.8463C8.30667 32.9729 7.02733 33.1503 5.862 33.3783C5.65933 33.4289 5.45667 33.4036 5.254 33.3023C5.05133 33.2009 4.93733 33.1249 4.912 33.0743C4.86133 32.9983 4.86133 32.8083 4.912 32.5043C4.988 32.2003 5.064 31.9976 5.14 31.8963C5.39333 31.6936 5.748 31.5036 6.204 31.3263C6.66 31.1236 7.06533 30.9843 7.42 30.9083C8.256 30.7309 9.15533 30.5789 10.118 30.4523C11.0807 30.3256 12.0687 30.2369 13.082 30.1863C13.0313 29.8569 12.9933 29.5023 12.968 29.1223C12.9427 28.7169 12.9173 28.3116 12.892 27.9063C12.5627 27.6276 12.2207 27.3109 11.866 26.9563C11.5367 26.6016 11.2453 26.2089 10.992 25.7783H10.308C10.0293 25.7783 9.7 25.7783 9.32 25.7783C8.96533 25.7783 8.522 25.7529 7.99 25.7023C7.66067 25.6516 7.382 25.5756 7.154 25.4743C6.926 25.3729 6.79933 25.1196 6.774 24.7143C6.74867 24.3849 6.736 24.0683 6.736 23.7643C6.76133 23.4603 6.87533 23.1689 7.078 22.8903C7.58467 22.2316 7.8 21.6489 7.724 21.1423C7.67333 20.6103 7.382 20.0149 6.85 19.3563C6.64733 19.1283 6.53333 18.8876 6.508 18.6343C6.48267 18.3809 6.49533 18.2036 6.546 18.1023C6.59667 18.0263 6.68533 17.9629 6.812 17.9123C6.964 17.8616 7.24267 17.8109 7.648 17.7603C8.88933 17.6843 10.08 17.6336 11.22 17.6083C12.3853 17.5576 13.6267 17.5069 14.944 17.4563C15.0707 17.1016 15.1467 16.7089 15.172 16.2783C15.2227 15.8223 15.2353 15.4296 15.21 15.1003C14.9313 15.1003 14.5893 15.1129 14.184 15.1383C13.804 15.1636 13.386 15.2016 12.93 15.2523C12.4993 15.2776 12.056 15.3283 11.6 15.4043C11.144 15.4549 10.7133 15.5436 10.308 15.6703C10.0547 15.7463 9.852 15.7843 9.7 15.7843C9.548 15.7843 9.32 15.6956 9.016 15.5183C8.76267 15.3916 8.47133 15.1763 8.142 14.8723C7.838 14.5429 7.59733 14.2516 7.42 13.9983C7.29333 13.7956 7.16667 13.5929 7.04 13.3903C6.91333 13.1623 6.91333 12.9849 7.04 12.8583C7.116 12.7823 7.24267 12.7316 7.42 12.7063C7.62267 12.6809 7.8 12.6683 7.952 12.6683H9.662ZM26.534 24.4103C26.7873 24.3849 27.1927 24.3469 27.75 24.2963C28.3327 24.2203 28.8773 24.1949 29.384 24.2203C29.5613 24.2456 29.7893 24.3216 30.068 24.4483C30.3467 24.5749 30.6 24.7269 30.828 24.9043C31.0813 25.0816 31.2967 25.2716 31.474 25.4743C31.6767 25.6769 31.7907 25.8669 31.816 26.0443C31.8413 26.2723 31.74 26.5889 31.512 26.9943C31.284 27.3743 31.1067 27.6403 30.98 27.7923C30.904 27.8936 30.8153 27.9823 30.714 28.0583C30.6127 28.1343 30.41 28.1849 30.106 28.2103C29.9287 28.2103 29.6627 28.2103 29.308 28.2103C28.9533 28.2103 28.586 28.1849 28.206 28.1343C27.826 28.0836 27.4713 28.0076 27.142 27.9063C26.8127 27.8049 26.5847 27.6783 26.458 27.5263V28.4003C26.458 29.2869 26.4073 30.2369 26.306 31.2503C26.23 32.2383 26.078 33.2136 25.85 34.1763C25.6473 35.1389 25.3813 36.0509 25.052 36.9123C24.748 37.7736 24.368 38.4956 23.912 39.0783C23.7093 39.3569 23.532 39.5089 23.38 39.5343C23.2533 39.5849 23.1267 39.5723 23 39.4963C22.924 39.4456 22.7973 39.3063 22.62 39.0783C22.4427 38.8756 22.316 38.6349 22.24 38.3563C22.2147 38.2296 22.2273 38.0396 22.278 37.7863C22.3287 37.5329 22.392 37.3176 22.468 37.1403C22.544 36.5829 22.6073 35.8736 22.658 35.0123C22.7087 34.1256 22.7467 33.2136 22.772 32.2763C22.8227 31.3136 22.848 30.3763 22.848 29.4643C22.8733 28.5523 22.886 27.7543 22.886 27.0703V12.9723C22.886 12.6429 22.7847 12.4149 22.582 12.2883C22.0753 11.9843 21.6067 11.6549 21.176 11.3003C20.7453 10.9456 20.3653 10.5149 20.036 10.0083C19.9853 9.93226 19.9093 9.70426 19.808 9.32426C19.7067 8.91892 19.6813 8.58959 19.732 8.33626C19.7573 8.15892 19.8207 8.04492 19.922 7.99426C20.0487 7.94359 20.1627 7.93092 20.264 7.95626C21.2013 8.15892 22.1767 8.50092 23.19 8.98226C24.2287 9.43826 25.0773 9.93226 25.736 10.4643C26.116 10.7683 26.344 11.0723 26.42 11.3763C26.496 11.6803 26.534 12.0476 26.534 12.4783V24.4103Z" fill="#FC4D71"/>
</g>
<path d="M9.662 11.554C11.0047 11.5287 12.246 11.44 13.386 11.288C14.526 11.1107 15.4253 10.9207 16.084 10.718C16.3627 10.6927 16.654 10.7687 16.958 10.946C17.2873 11.098 17.5787 11.3133 17.832 11.592C18.1107 11.8453 18.3387 12.124 18.516 12.428C18.6933 12.7067 18.782 12.96 18.782 13.188C18.782 13.3907 18.706 13.644 18.554 13.948C18.4273 14.2267 18.2627 14.5307 18.06 14.86C17.8573 15.164 17.6293 15.4553 17.376 15.734C17.148 16.0127 16.9327 16.2407 16.73 16.418C16.806 16.418 16.8947 16.4433 16.996 16.494C17.0973 16.5953 17.2113 16.7347 17.338 16.912C17.4647 17.064 17.5787 17.2287 17.68 17.406C17.7813 17.5833 17.8447 17.7733 17.87 17.976C17.9207 18.1533 17.908 18.3053 17.832 18.432C17.7053 18.6347 17.3507 18.7613 16.768 18.812C15.7293 18.8627 14.6653 18.9133 13.576 18.964C12.512 18.9893 11.4227 19.0273 10.308 19.078C10.612 19.4073 10.802 19.8127 10.878 20.294C10.9793 20.75 10.9793 21.2187 10.878 21.7C11.638 21.6747 12.2967 21.662 12.854 21.662C13.4113 21.6367 13.956 21.624 14.488 21.624C15.0453 21.5987 15.628 21.5733 16.236 21.548C16.8693 21.4973 17.6293 21.434 18.516 21.358C18.668 21.358 18.8707 21.358 19.124 21.358C19.4027 21.358 19.656 21.3707 19.884 21.396C20.1373 21.396 20.3527 21.434 20.53 21.51C20.7327 21.5607 20.834 21.6367 20.834 21.738C20.8593 21.9407 20.796 22.1687 20.644 22.422C20.5173 22.65 20.3273 22.8653 20.074 23.068C19.846 23.2707 19.5927 23.448 19.314 23.6C19.0607 23.752 18.82 23.8533 18.592 23.904C18.0347 24.0307 17.3507 24.1447 16.54 24.246C15.7293 24.3473 14.9187 24.4233 14.108 24.474C14.412 24.5753 14.6907 24.6893 14.944 24.816C15.2227 24.9173 15.4253 25.0313 15.552 25.158C15.7293 25.3353 15.8433 25.5 15.894 25.652C15.97 25.804 15.9953 26.032 15.97 26.336C15.9447 26.716 15.9067 27.1467 15.856 27.628C15.8307 28.084 15.78 28.54 15.704 28.996C16.616 28.9707 17.4647 28.9833 18.25 29.034C19.0607 29.0847 19.77 29.1733 20.378 29.3C20.454 29.3253 20.568 29.4013 20.72 29.528C20.8973 29.6547 21.0747 29.8193 21.252 30.022C21.4293 30.1993 21.5813 30.3893 21.708 30.592C21.86 30.7947 21.9613 30.972 22.012 31.124C22.0373 31.2253 21.9867 31.3773 21.86 31.58C21.7587 31.7573 21.6447 31.8967 21.518 31.998C21.4167 32.074 21.2013 32.188 20.872 32.34C20.5427 32.492 20.264 32.5173 20.036 32.416C19.3013 32.1373 18.3767 31.9347 17.262 31.808C16.1727 31.656 14.9947 31.5673 13.728 31.542C12.436 31.5167 11.0933 31.58 9.7 31.732C8.30667 31.8587 7.02733 32.036 5.862 32.264C5.65933 32.3147 5.45667 32.2893 5.254 32.188C5.05133 32.0867 4.93733 32.0107 4.912 31.96C4.86133 31.884 4.86133 31.694 4.912 31.39C4.988 31.086 5.064 30.8833 5.14 30.782C5.39333 30.5793 5.748 30.3893 6.204 30.212C6.66 30.0093 7.06533 29.87 7.42 29.794C8.256 29.6167 9.15533 29.4647 10.118 29.338C11.0807 29.2113 12.0687 29.1227 13.082 29.072C13.0313 28.7427 12.9933 28.388 12.968 28.008C12.9427 27.6027 12.9173 27.1973 12.892 26.792C12.5627 26.5133 12.2207 26.1967 11.866 25.842C11.5367 25.4873 11.2453 25.0947 10.992 24.664H10.308C10.0293 24.664 9.7 24.664 9.32 24.664C8.96533 24.664 8.522 24.6387 7.99 24.588C7.66067 24.5373 7.382 24.4613 7.154 24.36C6.926 24.2587 6.79933 24.0053 6.774 23.6C6.74867 23.2707 6.736 22.954 6.736 22.65C6.76133 22.346 6.87533 22.0547 7.078 21.776C7.58467 21.1173 7.8 20.5347 7.724 20.028C7.67333 19.496 7.382 18.9007 6.85 18.242C6.64733 18.014 6.53333 17.7733 6.508 17.52C6.48267 17.2667 6.49533 17.0893 6.546 16.988C6.59667 16.912 6.68533 16.8487 6.812 16.798C6.964 16.7473 7.24267 16.6967 7.648 16.646C8.88933 16.57 10.08 16.5193 11.22 16.494C12.3853 16.4433 13.6267 16.3927 14.944 16.342C15.0707 15.9873 15.1467 15.5947 15.172 15.164C15.2227 14.708 15.2353 14.3153 15.21 13.986C14.9313 13.986 14.5893 13.9987 14.184 14.024C13.804 14.0493 13.386 14.0873 12.93 14.138C12.4993 14.1633 12.056 14.214 11.6 14.29C11.144 14.3407 10.7133 14.4293 10.308 14.556C10.0547 14.632 9.852 14.67 9.7 14.67C9.548 14.67 9.32 14.5813 9.016 14.404C8.76267 14.2773 8.47133 14.062 8.142 13.758C7.838 13.4287 7.59733 13.1373 7.42 12.884C7.29333 12.6813 7.16667 12.4787 7.04 12.276C6.91333 12.048 6.91333 11.8707 7.04 11.744C7.116 11.668 7.24267 11.6173 7.42 11.592C7.62267 11.5667 7.8 11.554 7.952 11.554H9.662ZM26.534 23.296C26.7873 23.2707 27.1927 23.2327 27.75 23.182C28.3327 23.106 28.8773 23.0807 29.384 23.106C29.5613 23.1313 29.7893 23.2073 30.068 23.334C30.3467 23.4607 30.6 23.6127 30.828 23.79C31.0813 23.9673 31.2967 24.1573 31.474 24.36C31.6767 24.5627 31.7907 24.7527 31.816 24.93C31.8413 25.158 31.74 25.4747 31.512 25.88C31.284 26.26 31.1067 26.526 30.98 26.678C30.904 26.7793 30.8153 26.868 30.714 26.944C30.6127 27.02 30.41 27.0707 30.106 27.096C29.9287 27.096 29.6627 27.096 29.308 27.096C28.9533 27.096 28.586 27.0707 28.206 27.02C27.826 26.9693 27.4713 26.8933 27.142 26.792C26.8127 26.6907 26.5847 26.564 26.458 26.412V27.286C26.458 28.1727 26.4073 29.1227 26.306 30.136C26.23 31.124 26.078 32.0993 25.85 33.062C25.6473 34.0247 25.3813 34.9367 25.052 35.798C24.748 36.6593 24.368 37.3813 23.912 37.964C23.7093 38.2427 23.532 38.3947 23.38 38.42C23.2533 38.4707 23.1267 38.458 23 38.382C22.924 38.3313 22.7973 38.192 22.62 37.964C22.4427 37.7613 22.316 37.5207 22.24 37.242C22.2147 37.1153 22.2273 36.9253 22.278 36.672C22.3287 36.4187 22.392 36.2033 22.468 36.026C22.544 35.4687 22.6073 34.7593 22.658 33.898C22.7087 33.0113 22.7467 32.0993 22.772 31.162C22.8227 30.1993 22.848 29.262 22.848 28.35C22.8733 27.438 22.886 26.64 22.886 25.956V11.858C22.886 11.5287 22.7847 11.3007 22.582 11.174C22.0753 10.87 21.6067 10.5407 21.176 10.186C20.7453 9.83133 20.3653 9.40066 20.036 8.894C19.9853 8.818 19.9093 8.59 19.808 8.21C19.7067 7.80467 19.6813 7.47533 19.732 7.222C19.7573 7.04467 19.8207 6.93067 19.922 6.88C20.0487 6.82933 20.1627 6.81666 20.264 6.842C21.2013 7.04466 22.1767 7.38667 23.19 7.868C24.2287 8.324 25.0773 8.818 25.736 9.35C26.116 9.654 26.344 9.958 26.42 10.262C26.496 10.566 26.534 10.9333 26.534 11.364V23.296Z" fill="#FF99AC"/>
<defs>
<filter id="filter0_f_46_71" x="0.835938" y="3.91821" width="35.0181" height="39.692" filterUnits="userSpaceOnUse" color-interpolation-filters="sRGB">
<feFlood flood-opacity="0" result="BackgroundImageFix"/>
<feBlend mode="normal" in="SourceGraphic" in2="BackgroundImageFix" result="shape"/>
<feGaussianBlur stdDeviation="2" result="effect1_foregroundBlur_46_71"/>
</filter>
</defs>
</svg>
