<svg width="19" height="21" viewBox="0 0 19 21" fill="none" xmlns="http://www.w3.org/2000/svg">
<rect x="1" y="2" width="32" height="32" fill="#110E0E"/>
<g filter="url(#filter0_f_42_43)">
<path d="M6.086 6.362C6.58067 6.35267 7.038 6.32 7.458 6.264C7.878 6.19867 8.20933 6.12867 8.452 6.054C8.55467 6.04467 8.662 6.07267 8.774 6.138C8.89533 6.194 9.00267 6.27333 9.096 6.376C9.19867 6.46933 9.28267 6.572 9.348 6.684C9.41333 6.78667 9.446 6.88 9.446 6.964C9.446 7.03867 9.418 7.132 9.362 7.244C9.31533 7.34667 9.25467 7.45867 9.18 7.58C9.10533 7.692 9.02133 7.79933 8.928 7.902C8.844 8.00467 8.76467 8.08867 8.69 8.154C8.718 8.154 8.75067 8.16333 8.788 8.182C8.82533 8.21933 8.86733 8.27067 8.914 8.336C8.96067 8.392 9.00267 8.45267 9.04 8.518C9.07733 8.58333 9.10067 8.65333 9.11 8.728C9.12867 8.79333 9.124 8.84933 9.096 8.896C9.04933 8.97067 8.91867 9.01733 8.704 9.036C8.32133 9.05467 7.92933 9.07333 7.528 9.092C7.136 9.10133 6.73467 9.11533 6.324 9.134C6.436 9.25533 6.506 9.40467 6.534 9.582C6.57133 9.75 6.57133 9.92267 6.534 10.1C6.814 10.0907 7.05667 10.086 7.262 10.086C7.46733 10.0767 7.668 10.072 7.864 10.072C8.06933 10.0627 8.284 10.0533 8.508 10.044C8.74133 10.0253 9.02133 10.002 9.348 9.974C9.404 9.974 9.47867 9.974 9.572 9.974C9.67467 9.974 9.768 9.97867 9.852 9.988C9.94533 9.988 10.0247 10.002 10.09 10.03C10.1647 10.0487 10.202 10.0767 10.202 10.114C10.2113 10.1887 10.188 10.2727 10.132 10.366C10.0853 10.45 10.0153 10.5293 9.922 10.604C9.838 10.6787 9.74467 10.744 9.642 10.8C9.54867 10.856 9.46 10.8933 9.376 10.912C9.17067 10.9587 8.91867 11.0007 8.62 11.038C8.32133 11.0753 8.02267 11.1033 7.724 11.122C7.836 11.1593 7.93867 11.2013 8.032 11.248C8.13467 11.2853 8.20933 11.3273 8.256 11.374C8.32133 11.4393 8.36333 11.5 8.382 11.556C8.41 11.612 8.41933 11.696 8.41 11.808C8.40067 11.948 8.38667 12.1067 8.368 12.284C8.35867 12.452 8.34 12.62 8.312 12.788C8.648 12.7787 8.96067 12.7833 9.25 12.802C9.54867 12.8207 9.81 12.8533 10.034 12.9C10.062 12.9093 10.104 12.9373 10.16 12.984C10.2253 13.0307 10.2907 13.0913 10.356 13.166C10.4213 13.2313 10.4773 13.3013 10.524 13.376C10.58 13.4507 10.6173 13.516 10.636 13.572C10.6453 13.6093 10.6267 13.6653 10.58 13.74C10.5427 13.8053 10.5007 13.8567 10.454 13.894C10.4167 13.922 10.3373 13.964 10.216 14.02C10.0947 14.076 9.992 14.0853 9.908 14.048C9.63733 13.9453 9.29667 13.8707 8.886 13.824C8.48467 13.768 8.05067 13.7353 7.584 13.726C7.108 13.7167 6.61333 13.74 6.1 13.796C5.58667 13.8427 5.11533 13.908 4.686 13.992C4.61133 14.0107 4.53667 14.0013 4.462 13.964C4.38733 13.9267 4.34533 13.8987 4.336 13.88C4.31733 13.852 4.31733 13.782 4.336 13.67C4.364 13.558 4.392 13.4833 4.42 13.446C4.51333 13.3713 4.644 13.3013 4.812 13.236C4.98 13.1613 5.12933 13.11 5.26 13.082C5.568 13.0167 5.89933 12.9607 6.254 12.914C6.60867 12.8673 6.97267 12.8347 7.346 12.816C7.32733 12.6947 7.31333 12.564 7.304 12.424C7.29467 12.2747 7.28533 12.1253 7.276 11.976C7.15467 11.8733 7.02867 11.7567 6.898 11.626C6.77667 11.4953 6.66933 11.3507 6.576 11.192H6.324C6.22133 11.192 6.1 11.192 5.96 11.192C5.82933 11.192 5.666 11.1827 5.47 11.164C5.34867 11.1453 5.246 11.1173 5.162 11.08C5.078 11.0427 5.03133 10.9493 5.022 10.8C5.01267 10.6787 5.008 10.562 5.008 10.45C5.01733 10.338 5.05933 10.2307 5.134 10.128C5.32067 9.88533 5.4 9.67067 5.372 9.484C5.35333 9.288 5.246 9.06867 5.05 8.826C4.97533 8.742 4.93333 8.65333 4.924 8.56C4.91467 8.46667 4.91933 8.40133 4.938 8.364C4.95667 8.336 4.98933 8.31267 5.036 8.294C5.092 8.27533 5.19467 8.25667 5.344 8.238C5.80133 8.21 6.24 8.19133 6.66 8.182C7.08933 8.16333 7.54667 8.14467 8.032 8.126C8.07867 7.99533 8.10667 7.85067 8.116 7.692C8.13467 7.524 8.13933 7.37933 8.13 7.258C8.02733 7.258 7.90133 7.26267 7.752 7.272C7.612 7.28133 7.458 7.29533 7.29 7.314C7.13133 7.32333 6.968 7.342 6.8 7.37C6.632 7.38867 6.47333 7.42133 6.324 7.468C6.23067 7.496 6.156 7.51 6.1 7.51C6.044 7.51 5.96 7.47733 5.848 7.412C5.75467 7.36533 5.64733 7.286 5.526 7.174C5.414 7.05267 5.32533 6.94533 5.26 6.852C5.21333 6.77733 5.16667 6.70267 5.12 6.628C5.07333 6.544 5.07333 6.47867 5.12 6.432C5.148 6.404 5.19467 6.38533 5.26 6.376C5.33467 6.36667 5.4 6.362 5.456 6.362H6.086ZM12.302 10.688C12.3953 10.6787 12.5447 10.6647 12.75 10.646C12.9647 10.618 13.1653 10.6087 13.352 10.618C13.4173 10.6273 13.5013 10.6553 13.604 10.702C13.7067 10.7487 13.8 10.8047 13.884 10.87C13.9773 10.9353 14.0567 11.0053 14.122 11.08C14.1967 11.1547 14.2387 11.2247 14.248 11.29C14.2573 11.374 14.22 11.4907 14.136 11.64C14.052 11.78 13.9867 11.878 13.94 11.934C13.912 11.9713 13.8793 12.004 13.842 12.032C13.8047 12.06 13.73 12.0787 13.618 12.088C13.5527 12.088 13.4547 12.088 13.324 12.088C13.1933 12.088 13.058 12.0787 12.918 12.06C12.778 12.0413 12.6473 12.0133 12.526 11.976C12.4047 11.9387 12.3207 11.892 12.274 11.836V12.158C12.274 12.4847 12.2553 12.8347 12.218 13.208C12.19 13.572 12.134 13.9313 12.05 14.286C11.9753 14.6407 11.8773 14.9767 11.756 15.294C11.644 15.6113 11.504 15.8773 11.336 16.092C11.2613 16.1947 11.196 16.2507 11.14 16.26C11.0933 16.2787 11.0467 16.274 11 16.246C10.972 16.2273 10.9253 16.176 10.86 16.092C10.7947 16.0173 10.748 15.9287 10.72 15.826C10.7107 15.7793 10.7153 15.7093 10.734 15.616C10.7527 15.5227 10.776 15.4433 10.804 15.378C10.832 15.1727 10.8553 14.9113 10.874 14.594C10.8927 14.2673 10.9067 13.9313 10.916 13.586C10.9347 13.2313 10.944 12.886 10.944 12.55C10.9533 12.214 10.958 11.92 10.958 11.668V6.474C10.958 6.35267 10.9207 6.26867 10.846 6.222C10.6593 6.11 10.4867 5.98867 10.328 5.858C10.1693 5.72733 10.0293 5.56867 9.908 5.382C9.88933 5.354 9.86133 5.27 9.824 5.13C9.78667 4.98067 9.77733 4.85933 9.796 4.766C9.80533 4.70067 9.82867 4.65867 9.866 4.64C9.91267 4.62133 9.95467 4.61667 9.992 4.626C10.3373 4.70067 10.6967 4.82667 11.07 5.004C11.4527 5.172 11.7653 5.354 12.008 5.55C12.148 5.662 12.232 5.774 12.26 5.886C12.288 5.998 12.302 6.13333 12.302 6.292V10.688Z" fill="#FF99AC"/>
</g>
<path d="M6.086 6.362C6.58067 6.35267 7.038 6.32 7.458 6.264C7.878 6.19867 8.20933 6.12867 8.452 6.054C8.55467 6.04467 8.662 6.07267 8.774 6.138C8.89533 6.194 9.00267 6.27333 9.096 6.376C9.19867 6.46933 9.28267 6.572 9.348 6.684C9.41333 6.78667 9.446 6.88 9.446 6.964C9.446 7.03867 9.418 7.132 9.362 7.244C9.31533 7.34667 9.25467 7.45867 9.18 7.58C9.10533 7.692 9.02133 7.79933 8.928 7.902C8.844 8.00467 8.76467 8.08867 8.69 8.154C8.718 8.154 8.75067 8.16333 8.788 8.182C8.82533 8.21933 8.86733 8.27067 8.914 8.336C8.96067 8.392 9.00267 8.45267 9.04 8.518C9.07733 8.58333 9.10067 8.65333 9.11 8.728C9.12867 8.79333 9.124 8.84933 9.096 8.896C9.04933 8.97067 8.91867 9.01733 8.704 9.036C8.32133 9.05467 7.92933 9.07333 7.528 9.092C7.136 9.10133 6.73467 9.11533 6.324 9.134C6.436 9.25533 6.506 9.40467 6.534 9.582C6.57133 9.75 6.57133 9.92267 6.534 10.1C6.814 10.0907 7.05667 10.086 7.262 10.086C7.46733 10.0767 7.668 10.072 7.864 10.072C8.06933 10.0627 8.284 10.0533 8.508 10.044C8.74133 10.0253 9.02133 10.002 9.348 9.974C9.404 9.974 9.47867 9.974 9.572 9.974C9.67467 9.974 9.768 9.97867 9.852 9.988C9.94533 9.988 10.0247 10.002 10.09 10.03C10.1647 10.0487 10.202 10.0767 10.202 10.114C10.2113 10.1887 10.188 10.2727 10.132 10.366C10.0853 10.45 10.0153 10.5293 9.922 10.604C9.838 10.6787 9.74467 10.744 9.642 10.8C9.54867 10.856 9.46 10.8933 9.376 10.912C9.17067 10.9587 8.91867 11.0007 8.62 11.038C8.32133 11.0753 8.02267 11.1033 7.724 11.122C7.836 11.1593 7.93867 11.2013 8.032 11.248C8.13467 11.2853 8.20933 11.3273 8.256 11.374C8.32133 11.4393 8.36333 11.5 8.382 11.556C8.41 11.612 8.41933 11.696 8.41 11.808C8.40067 11.948 8.38667 12.1067 8.368 12.284C8.35867 12.452 8.34 12.62 8.312 12.788C8.648 12.7787 8.96067 12.7833 9.25 12.802C9.54867 12.8207 9.81 12.8533 10.034 12.9C10.062 12.9093 10.104 12.9373 10.16 12.984C10.2253 13.0307 10.2907 13.0913 10.356 13.166C10.4213 13.2313 10.4773 13.3013 10.524 13.376C10.58 13.4507 10.6173 13.516 10.636 13.572C10.6453 13.6093 10.6267 13.6653 10.58 13.74C10.5427 13.8053 10.5007 13.8567 10.454 13.894C10.4167 13.922 10.3373 13.964 10.216 14.02C10.0947 14.076 9.992 14.0853 9.908 14.048C9.63733 13.9453 9.29667 13.8707 8.886 13.824C8.48467 13.768 8.05067 13.7353 7.584 13.726C7.108 13.7167 6.61333 13.74 6.1 13.796C5.58667 13.8427 5.11533 13.908 4.686 13.992C4.61133 14.0107 4.53667 14.0013 4.462 13.964C4.38733 13.9267 4.34533 13.8987 4.336 13.88C4.31733 13.852 4.31733 13.782 4.336 13.67C4.364 13.558 4.392 13.4833 4.42 13.446C4.51333 13.3713 4.644 13.3013 4.812 13.236C4.98 13.1613 5.12933 13.11 5.26 13.082C5.568 13.0167 5.89933 12.9607 6.254 12.914C6.60867 12.8673 6.97267 12.8347 7.346 12.816C7.32733 12.6947 7.31333 12.564 7.304 12.424C7.29467 12.2747 7.28533 12.1253 7.276 11.976C7.15467 11.8733 7.02867 11.7567 6.898 11.626C6.77667 11.4953 6.66933 11.3507 6.576 11.192H6.324C6.22133 11.192 6.1 11.192 5.96 11.192C5.82933 11.192 5.666 11.1827 5.47 11.164C5.34867 11.1453 5.246 11.1173 5.162 11.08C5.078 11.0427 5.03133 10.9493 5.022 10.8C5.01267 10.6787 5.008 10.562 5.008 10.45C5.01733 10.338 5.05933 10.2307 5.134 10.128C5.32067 9.88533 5.4 9.67067 5.372 9.484C5.35333 9.288 5.246 9.06867 5.05 8.826C4.97533 8.742 4.93333 8.65333 4.924 8.56C4.91467 8.46667 4.91933 8.40133 4.938 8.364C4.95667 8.336 4.98933 8.31267 5.036 8.294C5.092 8.27533 5.19467 8.25667 5.344 8.238C5.80133 8.21 6.24 8.19133 6.66 8.182C7.08933 8.16333 7.54667 8.14467 8.032 8.126C8.07867 7.99533 8.10667 7.85067 8.116 7.692C8.13467 7.524 8.13933 7.37933 8.13 7.258C8.02733 7.258 7.90133 7.26267 7.752 7.272C7.612 7.28133 7.458 7.29533 7.29 7.314C7.13133 7.32333 6.968 7.342 6.8 7.37C6.632 7.38867 6.47333 7.42133 6.324 7.468C6.23067 7.496 6.156 7.51 6.1 7.51C6.044 7.51 5.96 7.47733 5.848 7.412C5.75467 7.36533 5.64733 7.286 5.526 7.174C5.414 7.05267 5.32533 6.94533 5.26 6.852C5.21333 6.77733 5.16667 6.70267 5.12 6.628C5.07333 6.544 5.07333 6.47867 5.12 6.432C5.148 6.404 5.19467 6.38533 5.26 6.376C5.33467 6.36667 5.4 6.362 5.456 6.362H6.086ZM12.302 10.688C12.3953 10.6787 12.5447 10.6647 12.75 10.646C12.9647 10.618 13.1653 10.6087 13.352 10.618C13.4173 10.6273 13.5013 10.6553 13.604 10.702C13.7067 10.7487 13.8 10.8047 13.884 10.87C13.9773 10.9353 14.0567 11.0053 14.122 11.08C14.1967 11.1547 14.2387 11.2247 14.248 11.29C14.2573 11.374 14.22 11.4907 14.136 11.64C14.052 11.78 13.9867 11.878 13.94 11.934C13.912 11.9713 13.8793 12.004 13.842 12.032C13.8047 12.06 13.73 12.0787 13.618 12.088C13.5527 12.088 13.4547 12.088 13.324 12.088C13.1933 12.088 13.058 12.0787 12.918 12.06C12.778 12.0413 12.6473 12.0133 12.526 11.976C12.4047 11.9387 12.3207 11.892 12.274 11.836V12.158C12.274 12.4847 12.2553 12.8347 12.218 13.208C12.19 13.572 12.134 13.9313 12.05 14.286C11.9753 14.6407 11.8773 14.9767 11.756 15.294C11.644 15.6113 11.504 15.8773 11.336 16.092C11.2613 16.1947 11.196 16.2507 11.14 16.26C11.0933 16.2787 11.0467 16.274 11 16.246C10.972 16.2273 10.9253 16.176 10.86 16.092C10.7947 16.0173 10.748 15.9287 10.72 15.826C10.7107 15.7793 10.7153 15.7093 10.734 15.616C10.7527 15.5227 10.776 15.4433 10.804 15.378C10.832 15.1727 10.8553 14.9113 10.874 14.594C10.8927 14.2673 10.9067 13.9313 10.916 13.586C10.9347 13.2313 10.944 12.886 10.944 12.55C10.9533 12.214 10.958 11.92 10.958 11.668V6.474C10.958 6.35267 10.9207 6.26867 10.846 6.222C10.6593 6.11 10.4867 5.98867 10.328 5.858C10.1693 5.72733 10.0293 5.56867 9.908 5.382C9.88933 5.354 9.86133 5.27 9.824 5.13C9.78667 4.98067 9.77733 4.85933 9.796 4.766C9.80533 4.70067 9.82867 4.65867 9.866 4.64C9.91267 4.62133 9.95467 4.61667 9.992 4.626C10.3373 4.70067 10.6967 4.82667 11.07 5.004C11.4527 5.172 11.7653 5.354 12.008 5.55C12.148 5.662 12.232 5.774 12.26 5.886C12.288 5.998 12.302 6.13333 12.302 6.292V10.688Z" fill="#FC4D71"/>
<defs>
<filter id="filter0_f_42_43" x="0.308105" y="0.612061" width="17.9539" height="19.6759" filterUnits="userSpaceOnUse" color-interpolation-filters="sRGB">
<feFlood flood-opacity="0" result="BackgroundImageFix"/>
<feBlend mode="normal" in="SourceGraphic" in2="BackgroundImageFix" result="shape"/>
<feGaussianBlur stdDeviation="2" result="effect1_foregroundBlur_42_43"/>
</filter>
</defs>
</svg>
